<svg width="53" height="53" viewBox="0 0 53 53" fill="none" xmlns="http://www.w3.org/2000/svg">
<path d="M0 10C0 4.47715 4.47715 0 10 0H43C48.5229 0 53 4.47715 53 10V43C53 48.5229 48.5228 53 43 53H10C4.47715 53 0 48.5228 0 43V10Z" fill="white"/>
<path d="M27 23.25C27.6903 23.25 28.25 23.8096 28.25 24.5V27.4167H31.1666C31.857 27.4167 32.4166 27.9763 32.4166 28.6667C32.4166 29.357 31.857 29.9167 31.1666 29.9167H28.25V32.8333C28.25 33.5237 27.6903 34.0833 27 34.0833C26.3096 34.0833 25.75 33.5237 25.75 32.8333V29.9167H22.8333C22.1429 29.9167 21.5833 29.357 21.5833 28.6667C21.5833 27.9763 22.1429 27.4167 22.8333 27.4167H25.75V24.5C25.75 23.8096 26.3096 23.25 27 23.25Z" fill="#2A72E1"/>
<path fill-rule="evenodd" clip-rule="evenodd" d="M21 15.75C16.3652 15.75 12.4166 19.2155 12.4166 23.7163C12.4166 26.7994 13.7314 29.5107 15.553 31.8026C17.3714 34.0904 19.75 36.0322 22.0275 37.61C22.8974 38.2126 23.7774 38.7685 24.5828 39.1787C25.3391 39.5638 26.2087 39.9167 27 39.9167C27.7912 39.9167 28.6608 39.5638 29.4171 39.1787C30.2225 38.7685 31.1025 38.2126 31.9724 37.61C34.2499 36.0322 36.6285 34.0904 38.4469 31.8026C40.2685 29.5107 41.5833 26.7994 41.5833 23.7163C41.5833 19.2155 37.6347 15.75 33 15.75C30.6108 15.75 28.5086 16.8702 27 18.3197C25.4914 16.8702 23.3891 15.75 21 15.75ZM14.9166 23.7163C14.9166 20.7985 17.5345 18.25 21 18.25C22.9902 18.25 24.8486 19.439 26.009 20.9482C26.2456 21.2559 26.6118 21.4363 27 21.4363C27.3881 21.4363 27.7543 21.2559 27.9909 20.9482C29.1513 19.439 31.0097 18.25 33 18.25C36.4654 18.25 39.0833 20.7985 39.0833 23.7163C39.0833 26.0555 38.0903 28.2333 36.4898 30.247C34.8862 32.2647 32.7284 34.0449 30.5487 35.5549C29.7239 36.1263 28.9471 36.6125 28.2825 36.951C27.5689 37.3144 27.1555 37.4167 27 37.4167C26.8444 37.4167 26.431 37.3144 25.7174 36.951C25.0529 36.6125 24.276 36.1263 23.4512 35.5549C21.2715 34.0449 19.1138 32.2647 17.5101 30.247C15.9096 28.2333 14.9166 26.0555 14.9166 23.7163Z" fill="#2A72E1"/>
</svg>
