<svg width="25" height="25" viewBox="0 0 25 25" fill="none" xmlns="http://www.w3.org/2000/svg">
<path d="M21.7501 11.283V20.3123C21.7499 20.5955 21.6732 20.8733 21.528 21.1164C21.3829 21.3596 21.1747 21.5589 20.9255 21.6935C20.6997 21.8157 20.4464 21.878 20.1898 21.8747H15.4967C15.2895 21.8747 15.0908 21.7924 14.9443 21.6459C14.7977 21.4994 14.7154 21.3007 14.7154 21.0935V16.4053C14.7154 16.1981 14.6331 15.9994 14.4866 15.8528C14.3401 15.7063 14.1414 15.624 13.9342 15.624H10.8092C10.602 15.624 10.4033 15.7063 10.2568 15.8528C10.1102 15.9994 10.0279 16.1981 10.0279 16.4053V21.0935C10.0279 21.3007 9.94563 21.4994 9.79911 21.6459C9.6526 21.7924 9.45389 21.8747 9.24669 21.8747H4.5628C4.34129 21.8753 4.12221 21.8285 3.92026 21.7375C3.7183 21.6465 3.53812 21.5134 3.3918 21.3471C3.13495 21.05 2.99563 20.6692 3.0001 20.2766V11.2829C3.00027 11.0652 3.04584 10.8499 3.1339 10.6509C3.22196 10.4518 3.35058 10.2732 3.51153 10.1267L11.3233 3.02383C11.6103 2.76099 11.9853 2.61518 12.3744 2.61514C12.7636 2.61511 13.1386 2.76085 13.4256 3.02363L21.2388 10.1268C21.3997 10.2734 21.5283 10.4519 21.6163 10.651C21.7043 10.8501 21.7499 11.0653 21.7501 11.283Z" fill="#7B61FF"/>
</svg>
